<svg height="512pt" viewBox="0 -77 512 512" width="512pt" xmlns="http://www.w3.org/2000/svg"><path d="m392.53125 349.867188h93.867188c9.425781 0 17.070312-7.640626 17.070312-17.066407v-307.199219c0-9.425781-7.644531-17.070312-17.070312-17.070312h-460.796876c-9.425781 0-17.070312 7.644531-17.070312 17.070312v307.199219c0 9.425781 7.644531 17.066407 17.070312 17.066407zm0 0" fill="#2e7d32"/><path d="m372.667969 349.867188h88.984375c4.414062-.113282 8.605468-1.972657 11.644531-5.175782 3.042969-3.199218 4.683594-7.476562 4.570313-11.890625v-307.199219c.113281-4.414062-1.53125-8.695312-4.570313-11.894531s-7.230469-5.0625-11.644531-5.175781h-436.90625c-4.414063.113281-8.601563 1.976562-11.640625 5.175781-3.042969 3.199219-4.6875 7.480469-4.570313 11.894531v307.199219c-.117187 4.414063 1.527344 8.691407 4.570313 11.890625 3.039062 3.203125 7.226562 5.0625 11.640625 5.175782zm0 0" fill="#4caf50"/><path d="m426.667969 170.667969-170.667969 110.933593-21.332031-13.824218-149.335938-97.109375 149.335938-97.023438 21.332031-13.910156zm0 0" fill="#fdd834"/><path d="m384 170.667969-149.332031 97.109375-149.335938-97.109375 149.335938-97.023438zm0 0" fill="#ffeb3a"/><path d="m315.734375 170.667969c.0625 12.511719-3.886719 24.710937-11.265625 34.816406-3.921875 5.570313-8.804688 10.394531-14.421875 14.25-9.976563 6.980469-21.871094 10.703125-34.046875 10.667969-32.988281 0-59.734375-26.746094-59.734375-59.734375-.011719-.457031.015625-.914063.085937-1.363281.066407-6.84375 1.398438-13.613282 3.925782-19.96875 10.351562-26.804688 38.320312-42.441407 66.574218-37.222657 28.257813 5.21875 48.792969 29.820313 48.882813 58.554688zm0 0" fill="#02a9f4"/><path d="m304.46875 205.484375c-3.921875 5.570313-8.804688 10.394531-14.421875 14.25l-.851563-4.78125c-3.421874-19.277344-15.480468-35.933594-32.730468-45.199219-17.253906-9.265625-37.796875-10.125-55.761719-2.328125l-4.351563 1.875c.066407-6.839843 1.398438-13.609375 3.925782-19.96875 8.316406-2.863281 17.058594-4.308593 25.855468-4.265625 36.847657-.117187 69.085938 24.75 78.335938 60.417969zm0 0" fill="#ecf0f1"/><path d="m486.398438 0h-460.796876c-14.140624 0-25.601562 11.460938-25.601562 25.601562v307.199219c0 14.136719 11.460938 25.597657 25.601562 25.597657h460.796876c14.140624 0 25.601562-11.460938 25.601562-25.597657v-307.199219c0-14.140624-11.460938-25.601562-25.601562-25.601562zm8.535156 332.800781c0 4.710938-3.820313 8.53125-8.535156 8.53125h-460.796876c-4.714843 0-8.535156-3.820312-8.535156-8.53125v-307.199219c0-4.714843 3.820313-8.535156 8.535156-8.535156h460.796876c4.714843 0 8.535156 3.820313 8.535156 8.535156zm0 0"/><path d="m435.011719 169.027344c-.171875-.691406-.4375-1.355469-.785157-1.980469-.109374-.351563-.246093-.699219-.410156-1.03125l-.050781-.050781c-.355469-.445313-.753906-.855469-1.195313-1.222656-.359374-.429688-.761718-.824219-1.203124-1.175782l-.050782-.050781-170.664062-110.933594c-2.828125-1.839843-6.472656-1.839843-9.300782 0l-170.667968 110.933594-.042969.042969c-.464844.371094-.890625.789062-1.273437 1.246094-.414063.351562-.792969.738281-1.132813 1.160156l-.050781.050781c-.160156.335937-.296875.679687-.410156 1.035156-.347657.621094-.613282 1.289063-.785157 1.980469-.046875 1.089844-.046875 2.183594 0 3.277344.171875.6875.4375 1.355468.785157 1.976562.109374.355469.246093.699219.410156 1.035156l.050781.050782c.355469.445312.753906.855468 1.195313 1.21875.359374.433594.761718.828125 1.203124 1.179687l.050782.050781 170.667968 110.933594c2.828126 1.835938 6.472657 1.835938 9.300782 0l170.664062-110.933594c.105469-.066406.15625-.171874.257813-.246093.773437-.535157 1.449219-1.199219 1.996093-1.964844.0625-.078125.136719-.144531.195313-.222656l.050781-.066407c.164063-.335937.300782-.679687.410156-1.035156.347657-.621094.613282-1.285156.785157-1.976562.046875-1.09375.046875-2.1875 0-3.28125zm-179.011719 102.394531-155.007812-100.753906 155.007812-100.753907 155.007812 100.753907zm0 0"/><path d="m256 102.398438c-37.703125 0-68.265625 30.566406-68.265625 68.269531s30.5625 68.265625 68.265625 68.265625 68.265625-30.5625 68.265625-68.265625c-.042969-37.6875-30.582031-68.226563-68.265625-68.269531zm0 17.070312c18.054688.003906 34.769531 9.511719 43.996094 25.027344 9.226562 15.519531 9.601562 34.746094.984375 50.609375-14.632813-35.59375-52.355469-55.914063-90.128907-48.546875 8.902344-16.664063 26.253907-27.074219 45.148438-27.089844zm-51.199219 51.199219c0-1.65625.09375-3.285157.246094-4.898438 16.9375-5.980469 35.613281-4.539062 51.433594 3.96875 15.820312 8.507813 27.320312 23.292969 31.671875 40.71875-15.328125 12.425781-36.433594 14.921875-54.238282 6.421875-17.804687-8.5-29.136718-26.480468-29.113281-46.210937zm0 0"/></svg>