<svg height="512pt" viewBox="0 -77 512 512" width="512pt" xmlns="http://www.w3.org/2000/svg"><path d="m503.46875 315.734375v17.066406c-.03125 9.414063-7.65625 17.039063-17.070312 17.066407h-460.796876c-9.414062-.027344-17.039062-7.652344-17.070312-17.066407v-17.066406zm0 0" fill="#cfd8dc"/><path d="m503.46875 25.601562v290.132813h-494.9375v-290.132813c.03125-9.414062 7.65625-17.039062 17.070312-17.070312h460.796876c9.414062.03125 17.039062 7.65625 17.070312 17.070312zm0 0" fill="#c52828"/><path d="m477.867188 25.601562.003906 290.132813h-469.34375l.003906-290.132813c-.207031-9.179687 7.035156-16.808593 16.214844-17.070312h436.90625c9.179687.261719 16.425781 7.890625 16.214844 17.070312zm0 0" fill="#f44335"/><path d="m25.601562 8.53125h221.867188v170.667969h-238.9375v-153.597657c0-9.425781 7.644531-17.070312 17.070312-17.070312zm0 0" fill="#0377bc"/><path d="m247.46875 42.667969h256v34.132812h-256zm0 0" fill="#cfd8dc"/><path d="m247.46875 110.933594h256v34.132812h-256zm0 0" fill="#cfd8dc"/><path d="m8.53125 179.199219h494.933594v34.132812h-494.933594zm0 0" fill="#cfd8dc"/><path d="m318.464844 281.601562h185.003906v-34.132812h-494.9375v34.132812h185.003906" fill="#cfd8dc"/><path d="m477.871094 315.734375-.003906 17.066406c.210937 9.179688-7.035157 16.804688-16.214844 17.066407h-436.90625c-9.179688-.261719-16.421875-7.886719-16.210938-17.066407l-.003906-17.066406zm0 0" fill="#f5f5f5"/><path d="m247.46875 42.667969h230.398438v34.132812h-230.398438zm0 0" fill="#f5f5f5"/><path d="m247.46875 110.933594h230.398438v34.132812h-230.398438zm0 0" fill="#f5f5f5"/><path d="m8.53125 179.199219h469.335938v34.132812h-469.335938zm0 0" fill="#f5f5f5"/><path d="m302.429688 281.601562h175.4375v-34.132812h-469.335938v34.132812h175.4375" fill="#f5f5f5"/><g fill="#ecf0f1"><path d="m25.601562 17.066406 3.957032 8.011719 8.839844 1.289063-6.398438 6.238281 1.511719 8.804687-7.910157-4.152344-7.910156 4.152344 1.507813-8.804687-6.398438-6.238281 8.839844-1.289063zm0 0"/><path d="m59.734375 17.066406 3.957031 8.011719 8.839844 1.289063-6.398438 6.238281 1.511719 8.804687-7.910156-4.152344-7.910156 4.152344 1.507812-8.804687-6.398437-6.238281 8.839844-1.289063zm0 0"/><path d="m93.867188 17.066406 3.957031 8.011719 8.84375 1.289063-6.402344 6.238281 1.511719 8.804687-7.910156-4.152344-7.910157 4.152344 1.511719-8.804687-6.402344-6.238281 8.839844-1.289063zm0 0"/><path d="m128 17.066406 3.960938 8.011719 8.839843 1.289063-6.402343 6.238281 1.511718 8.804687-7.910156-4.152344-7.910156 4.152344 1.511718-8.804687-6.402343-6.238281 8.839843-1.289063zm0 0"/><path d="m162.132812 17.066406 3.960938 8.011719 8.839844 1.289063-6.402344 6.238281 1.511719 8.804687-7.910157-4.152344-7.910156 4.152344 1.511719-8.804687-6.402344-6.238281 8.84375-1.289063zm0 0"/><path d="m196.265625 17.066406 3.960937 8.011719 8.839844 1.289063-6.398437 6.238281 1.507812 8.804687-7.910156-4.152344-7.910156 4.152344 1.511719-8.804687-6.398438-6.238281 8.839844-1.289063zm0 0"/><path d="m230.398438 17.066406 3.960937 8.011719 8.839844 1.289063-6.398438 6.238281 1.507813 8.804687-7.910156-4.152344-7.910157 4.152344 1.511719-8.804687-6.398438-6.238281 8.839844-1.289063zm0 0"/><path d="m44.800781 49.382812 3.957031 8.011719 8.84375 1.289063-6.402343 6.238281 1.511719 8.804687-7.910157-4.164062-7.910156 4.164062 1.507813-8.804687-6.398438-6.238281 8.839844-1.289063zm0 0"/><path d="m78.933594 49.382812 3.960937 8.011719 8.839844 1.289063-6.402344 6.238281 1.511719 8.804687-7.910156-4.164062-7.910156 4.164062 1.507812-8.804687-6.398438-6.238281 8.839844-1.289063zm0 0"/><path d="m113.066406 49.382812 3.960938 8.011719 8.839844 1.289063-6.398438 6.238281 1.507812 8.804687-7.910156-4.164062-7.910156 4.164062 1.511719-8.804687-6.402344-6.238281 8.839844-1.289063zm0 0"/><path d="m147.199219 49.382812 3.960937 8.011719 8.839844 1.289063-6.398438 6.238281 1.507813 8.804687-7.910156-4.164062-7.910157 4.164062 1.511719-8.804687-6.402343-6.238281 8.84375-1.289063zm0 0"/><path d="m181.332031 49.382812 3.960938 8.011719 8.839843 1.289063-6.398437 6.238281 1.507813 8.804687-7.910157-4.164062-7.910156 4.164062 1.511719-8.804687-6.402344-6.238281 8.84375-1.289063zm0 0"/><path d="m215.46875 49.382812 3.957031 8.011719 8.839844 1.289063-6.398437 6.238281 1.511718 8.804687-7.910156-4.164062-7.914062 4.164062 1.511718-8.804687-6.398437-6.238281 8.839843-1.289063zm0 0"/><path d="m25.601562 81.691406 3.957032 8.019532 8.839844 1.28125-6.398438 6.238281 1.511719 8.8125-7.910157-4.164063-7.910156 4.164063 1.507813-8.8125-6.398438-6.238281 8.839844-1.28125zm0 0"/><path d="m59.734375 81.691406 3.957031 8.019532 8.839844 1.28125-6.398438 6.238281 1.511719 8.8125-7.910156-4.164063-7.910156 4.164063 1.507812-8.8125-6.398437-6.238281 8.839844-1.28125zm0 0"/><path d="m93.867188 81.691406 3.957031 8.019532 8.84375 1.28125-6.402344 6.238281 1.511719 8.8125-7.910156-4.164063-7.910157 4.164063 1.511719-8.8125-6.402344-6.238281 8.839844-1.28125zm0 0"/><path d="m128 81.691406 3.960938 8.019532 8.839843 1.28125-6.402343 6.238281 1.511718 8.8125-7.910156-4.164063-7.910156 4.164063 1.511718-8.8125-6.402343-6.238281 8.839843-1.28125zm0 0"/><path d="m162.132812 81.691406 3.960938 8.019532 8.839844 1.28125-6.402344 6.238281 1.511719 8.8125-7.910157-4.164063-7.910156 4.164063 1.511719-8.8125-6.402344-6.238281 8.84375-1.28125zm0 0"/><path d="m196.265625 81.691406 3.960937 8.019532 8.839844 1.28125-6.398437 6.238281 1.507812 8.8125-7.910156-4.164063-7.910156 4.164063 1.511719-8.8125-6.398438-6.238281 8.839844-1.28125zm0 0"/><path d="m230.398438 81.691406 3.960937 8.019532 8.839844 1.28125-6.398438 6.238281 1.507813 8.8125-7.910156-4.164063-7.910157 4.164063 1.511719-8.8125-6.398438-6.238281 8.839844-1.28125zm0 0"/><path d="m25.601562 146.320312 3.957032 8.015626 8.839844 1.285156-6.398438 6.238281 1.511719 8.808594-7.910157-4.15625-7.910156 4.15625 1.507813-8.808594-6.398438-6.238281 8.839844-1.285156zm0 0"/><path d="m59.734375 146.320312 3.957031 8.015626 8.839844 1.285156-6.398438 6.238281 1.511719 8.808594-7.910156-4.15625-7.910156 4.15625 1.507812-8.808594-6.398437-6.238281 8.839844-1.285156zm0 0"/><path d="m93.867188 146.320312 3.957031 8.015626 8.84375 1.285156-6.402344 6.238281 1.511719 8.808594-7.910156-4.15625-7.910157 4.15625 1.511719-8.808594-6.402344-6.238281 8.839844-1.285156zm0 0"/><path d="m128 146.320312 3.960938 8.015626 8.839843 1.285156-6.402343 6.238281 1.511718 8.808594-7.910156-4.15625-7.910156 4.15625 1.511718-8.808594-6.402343-6.238281 8.839843-1.285156zm0 0"/><path d="m162.132812 146.320312 3.960938 8.015626 8.839844 1.285156-6.402344 6.238281 1.511719 8.808594-7.910157-4.15625-7.910156 4.15625 1.511719-8.808594-6.402344-6.238281 8.84375-1.285156zm0 0"/><path d="m196.265625 146.320312 3.960937 8.015626 8.839844 1.285156-6.398437 6.238281 1.507812 8.808594-7.910156-4.15625-7.910156 4.15625 1.511719-8.808594-6.398438-6.238281 8.839844-1.285156zm0 0"/><path d="m230.398438 146.320312 3.960937 8.015626 8.839844 1.285156-6.398438 6.238281 1.507813 8.808594-7.910156-4.15625-7.910157 4.15625 1.511719-8.808594-6.398438-6.238281 8.839844-1.285156zm0 0"/><path d="m44.800781 114.003906 3.957031 8.015625 8.84375 1.289063-6.402343 6.238281 1.511719 8.804687-7.910157-4.15625-7.910156 4.15625 1.507813-8.804687-6.398438-6.238281 8.839844-1.289063zm0 0"/><path d="m78.933594 114.003906 3.960937 8.015625 8.839844 1.289063-6.402344 6.238281 1.511719 8.804687-7.910156-4.15625-7.910156 4.15625 1.507812-8.804687-6.398438-6.238281 8.839844-1.289063zm0 0"/><path d="m113.066406 114.003906 3.960938 8.015625 8.839844 1.289063-6.398438 6.238281 1.507812 8.804687-7.910156-4.15625-7.910156 4.15625 1.511719-8.804687-6.402344-6.238281 8.839844-1.289063zm0 0"/><path d="m147.199219 114.003906 3.960937 8.015625 8.839844 1.289063-6.398438 6.238281 1.507813 8.804687-7.910156-4.15625-7.910157 4.15625 1.511719-8.804687-6.402343-6.238281 8.84375-1.289063zm0 0"/><path d="m181.332031 114.003906 3.960938 8.015625 8.839843 1.289063-6.398437 6.238281 1.507813 8.804687-7.910157-4.15625-7.910156 4.15625 1.511719-8.804687-6.402344-6.238281 8.84375-1.289063zm0 0"/><path d="m215.46875 114.003906 3.957031 8.015625 8.839844 1.289063-6.398437 6.238281 1.511718 8.804687-7.910156-4.15625-7.914062 4.15625 1.511718-8.804687-6.398437-6.238281 8.839843-1.289063zm0 0"/></g><path d="m486.398438 0h-460.796876c-14.140624 0-25.601562 11.460938-25.601562 25.601562v307.199219c0 14.136719 11.460938 25.597657 25.601562 25.597657h460.796876c14.140624 0 25.601562-11.460938 25.601562-25.597657v-307.199219c0-14.140624-11.460938-25.601562-25.601562-25.601562zm8.535156 307.199219h-477.867188v-17.066407h477.867188zm0-170.667969h-238.933594v-17.066406h238.933594zm-238.933594-34.132812v-17.066407h238.933594v17.066407zm238.933594-34.132813h-238.933594v-17.066406h238.933594zm-238.933594 85.335937h238.933594v17.066407h-238.933594zm238.933594 34.132813v17.066406h-477.867188v-17.066406zm0 51.199219h-477.867188v-17.066406h477.867188zm0 34.132812h-477.867188v-17.066406h477.867188zm0-247.464844v8.53125h-238.933594v-17.066406h230.398438c4.714843 0 8.535156 3.820313 8.535156 8.535156zm-469.332032-8.535156h213.332032v153.601563h-221.867188v-145.066407c0-4.714843 3.820313-8.535156 8.535156-8.535156zm460.796876 324.265625h-460.796876c-4.714843 0-8.535156-3.820312-8.535156-8.53125v-8.535156h477.867188v8.535156c0 4.710938-3.820313 8.53125-8.535156 8.53125zm0 0"/></svg>